<svg width="316" height="276" viewBox="0 0 316 276" fill="none" xmlns="http://www.w3.org/2000/svg">
  <!-- Poster Lab "P" monogram — vectorized from client logo. Cream border, black body, orange corner, cream P cutout. -->
  <path d="M0.826172 275.07C2.11906 268.142 4.46178 260.337 6.26413 253.345L18.0558 208.513L53.6381 72.5251C58.4831 54.2661 62.9483 35.7068 67.9823 17.4972C69.0613 13.5948 71.0263 4.30414 72.6626 1.05284C73.8361 0.268892 107.832 0.767375 112.797 0.769347L251.293 0.797257L293.993 0.771535C299.118 0.763342 310.155 0.392437 314.755 0.816062C315.288 2.33512 308.448 26.3728 307.49 30.6056C304.113 45.5438 299.92 60.3978 296.095 75.2318L276.68 151.313C274.898 158.272 273.37 165.251 271.41 172.17C270.425 175.647 269.528 179.421 268.683 182.936L265.755 194.694C264.625 199.325 264.568 203.646 259.505 205.663C251.463 212.309 243.411 218.555 235.294 225.029L205.385 249.038L187.847 263.06C183.801 266.317 179.396 270.122 175.066 272.88C171.988 275.325 166.666 274.94 162.897 274.945C154.092 274.957 145.283 274.845 136.476 274.862L70.8591 275.152C54.8353 275.355 38.8101 275.41 22.7855 275.315L9.80016 275.347C7.05758 275.355 3.45788 275.465 0.826172 275.07Z" fill="#F4F4F5"/>
  <path d="M192.178 204.715C207.564 205.008 222.952 205.196 238.34 205.278L251.47 205.422C253.805 205.446 257.26 205.372 259.505 205.664C251.462 212.31 243.411 218.555 235.293 225.03L205.385 249.039L187.847 263.06C183.801 266.318 179.396 270.123 175.065 272.88C175.251 271.178 176.191 268.103 176.655 266.35C177.54 262.948 178.402 259.538 179.241 256.125L189.414 215.28C190.301 211.722 191.328 208.297 192.178 204.715Z" fill="#FF4F18"/>
  <path d="M85.1038 16.5391C122.598 16.9358 160.489 16.5231 198.023 16.6024L262.075 16.6912C272.602 16.691 283.84 16.8787 294.31 16.6428C293.265 20.1723 292.67 23.3158 291.74 26.7835C288.1 40.495 284.59 54.2407 281.21 68.0185L263.947 135.362C260.367 149.41 256.527 163.471 253.19 177.579C252.21 181.724 250.547 185.271 250.41 189.491L180.732 189.472C180.1 192.861 177.753 200.807 176.773 204.628C175.002 210.224 173.471 217.31 171.994 223.064L162.811 258.29C115.863 258.165 68.4668 258.793 21.5806 258.293C23.5298 252.763 24.9329 246.298 26.4143 240.541L32.7778 216.042C34.2475 210.153 36.0918 203.962 37.6383 198.068L46.9503 161.938L74.932 55.1712C78.2343 42.4847 82.0458 29.2182 85.1038 16.5391Z" fill="#0A0A0A"/>
  <path d="M109.408 66.2294C117.97 65.9659 127.673 66.2311 136.351 66.2754L188.585 66.6556L212.059 66.7331C221.684 66.7621 228.748 65.7851 236.356 72.8696C241.834 77.9711 244.884 85.9119 243.303 93.3416C241.694 100.903 239.467 108.218 237.504 115.683C236.429 119.699 235.775 123.413 234.06 127.263C232.339 131.091 229.975 134.598 227.072 137.631C221.193 143.877 213.57 148.21 205.195 150.065C201.3 150.94 186.47 150.44 181.418 150.557C162.284 151 142.534 150.376 123.434 150.982L115.854 180.32C114.304 186.137 111.403 195.533 110.624 201.251L105.188 201.324L80.6211 201.522C81.8441 197.911 82.5198 194.697 83.4866 191.074L88.8638 170.486C92.9206 155.007 97.5371 139.134 101.203 123.617C107.787 123.348 116.161 123.574 122.852 123.574L170.936 123.7L185.605 123.695C189.439 123.693 193.259 123.816 197.056 123.238C208.496 121.493 213.087 108.424 211.328 98.2669C211.09 98.0084 210.85 97.7521 210.607 97.4976C208.879 95.6921 207.482 94.4584 204.91 94.0966C201.21 93.5759 197.051 93.7499 193.296 93.7591L175.607 93.7846C151.581 93.7874 126.146 94.1879 102.235 93.7021C102.805 91.1174 103.749 88.2079 104.513 85.6466C106.378 79.3884 107.439 72.3886 109.408 66.2294Z" fill="#F4F4F5"/>
</svg>
